<svg width="706" height="838" viewBox="0 0 706 838" fill="none" xmlns="http://www.w3.org/2000/svg">
<rect width="706" height="838" rx="15" fill="#FFEFD7"/>
<g clip-path="url(#clip0_3_220)">
<path d="M290.78 322.239H223.695C221.394 322.239 219.521 320.367 219.521 318.065C219.521 315.764 221.394 313.891 223.695 313.891H290.78C293.081 313.891 294.954 315.764 294.954 318.065C294.954 320.367 293.081 322.239 290.78 322.239Z" fill="#D7D7D7"/>
<path d="M343.133 336.366H223.695C221.394 336.366 219.521 334.494 219.521 332.192C219.521 329.891 221.394 328.019 223.695 328.019H343.133C345.435 328.019 347.307 329.891 347.307 332.192C347.307 334.494 345.435 336.366 343.133 336.366Z" fill="#D7D7D7"/>
<path d="M343.133 350.366H223.695C221.394 350.366 219.521 348.494 219.521 346.192C219.521 343.891 221.394 342.019 223.695 342.019H343.133C345.435 342.019 347.307 343.891 347.307 346.192C347.307 348.494 345.435 350.366 343.133 350.366Z" fill="#D7D7D7"/>
<path d="M355.785 423.019V421.019C332.7 421.019 312.54 402.161 307.18 375.893L315.879 378.131C311.672 374.145 307.421 367.472 304.785 362.019C303.228 367.873 300.319 375.23 296.943 379.941L305.173 376.042C310.646 403.371 331.672 423.019 355.785 423.019Z" fill="#3F3D56"/>
<path d="M347.053 346.48C347.053 348.686 345.258 350.48 343.053 350.48H291.053C288.847 350.48 287.053 348.686 287.053 346.48C287.053 344.274 288.847 342.48 291.053 342.48H343.053C345.258 342.48 347.053 344.274 347.053 346.48Z" fill="#F49D1A"/>
<path d="M112.904 569.297C112.112 566.541 110.757 564.19 109.143 562.513L103.279 535.783L90.498 538.914L97.8222 565.692C97.3405 567.957 97.4369 570.662 98.2285 573.418C100.037 579.715 104.788 583.898 108.841 582.76C112.893 581.622 114.712 575.595 112.904 569.297Z" fill="#FFB6B6"/>
<path d="M111.136 393.956C111.136 393.956 97.3307 393.48 89.3307 402.48C80.1652 413.676 73.9001 457.547 78.6033 460.501L91.346 550.987L109.517 548.49L104.853 439.921L111.136 393.956Z" fill="#F49D1A"/>
<path d="M204.331 546.48L201.023 656.917H153.523L151.603 614.347L143.163 656.917H92.2533L98.6033 583.737L105.163 568.347L109.603 557.917L204.331 546.48Z" fill="#2F2E41"/>
<path d="M166.603 375.917L133.603 373.917L122.603 387.917C113.103 389.951 104.522 392.577 98.6033 396.917C100.019 438.843 96.9087 493.359 109.603 503.917L98.3307 583.48C98.3307 583.48 102.877 579.585 110.47 580.96C113.094 581.435 116.261 587.345 119.484 587.703C144.254 590.455 184.422 587.625 204.331 546.48L196.603 486.917L198.603 399.917C192.351 394.975 184.578 391.763 175.603 389.917L166.603 375.917Z" fill="#F49D1A"/>
<path d="M230.134 351.578C230.492 355.045 230.037 358.306 228.99 360.92L234.487 393.732L218.797 395.891L214.91 362.374C213.351 360.029 212.24 356.93 211.882 353.463C211.064 345.543 214.486 338.701 219.527 338.18C224.567 337.66 229.316 343.658 230.134 351.578Z" fill="#FFB6B6"/>
<path d="M177.971 402.424C176.328 404.848 176.785 407.572 176.393 410.846C174.728 424.742 201.358 465.806 219.784 470.534C222.201 471.154 223.579 473.762 226.019 474.287C233.249 475.841 239.98 470.102 239.59 462.718L234.585 368.01L213.558 375.182L214.903 424.353C214.769 414.166 205.416 403.794 198.331 399.48C198.331 399.48 183.98 393.558 177.971 402.424Z" fill="#F49D1A"/>
<path d="M153.528 371.329C169.582 371.329 182.596 358.315 182.596 342.262C182.596 326.208 169.582 313.194 153.528 313.194C137.474 313.194 124.46 326.208 124.46 342.262C124.46 358.315 137.474 371.329 153.528 371.329Z" fill="#FFB6B6"/>
<path d="M180.603 320.917C180.353 320.977 184.43 317.004 184.603 316.917C188.603 314.917 184.493 334.467 181.603 333.917C174.493 332.567 171.423 329.887 168.663 336.577C167.893 338.437 167.413 340.537 165.913 341.867C163.853 343.677 160.433 343.527 158.753 345.687C157.403 347.427 157.793 349.987 158.793 351.947C159.793 353.917 161.313 355.587 162.223 357.597C163.243 359.857 158.893 367.047 157.233 371.087V371.097L157.223 371.121C156.782 372.181 155.734 369.128 154.628 368.823C153.303 368.459 151.352 371.585 149.243 371.017C149.233 371.017 149.223 371.007 149.213 371.007C147.203 370.447 144.963 369.847 142.743 369.247H142.733C136.483 367.547 134.903 369.987 134.603 369.917L130.723 365.857C129.392 364.888 129.542 361.758 128.603 360.917C127.835 360.23 125.921 361.818 125.357 361.158C122.591 357.918 121.954 354.676 120.323 348.277C118.833 342.427 115.743 324.917 122.093 324.127C128.083 323.377 123.703 315.037 129.733 315.347C129.373 313.827 130.043 312.197 131.133 311.077C132.213 309.947 133.653 309.247 135.103 308.647C142.253 305.727 141.063 303.217 148.603 304.917C149.353 303.867 158.971 301.13 160.331 301.48C160.431 301.5 158.233 305.767 163.603 304.917C163.403 306.147 166.331 303.48 166.603 307.917C172.331 304.48 175.413 312.707 175.603 313.917C175.853 315.427 173.573 314.657 175.093 314.887C175.993 315.027 177.533 316.857 177.383 317.767C178.033 316.887 178.683 316.017 179.343 315.137C179.463 315.147 179.573 315.167 179.693 315.187C182.733 315.767 179.248 325.705 179.373 322.607C179.603 316.917 183.633 320.247 180.603 320.917Z" fill="#2F2E41"/>
<path d="M551.37 314.958C550.296 323.785 549.122 332.6 547.85 341.401C547.333 344.976 546.786 348.596 545.348 351.909C544.367 354.17 542.992 356.235 541.624 358.287C540.009 360.711 538.366 363.166 536.172 365.082C533.977 366.998 531.127 368.343 528.222 368.118C535.929 362.931 541.108 354.157 541.926 344.903C542.311 340.553 541.783 336.181 541.682 331.815C541.581 327.45 541.946 322.932 543.96 319.058C545.974 315.183 549.953 312.082 554.318 312.192L551.37 314.958Z" fill="#2F2E41"/>
<path d="M473.268 503.231C466.997 508.316 459.29 509.204 456.054 505.214C452.818 501.224 455.277 493.866 461.548 488.78C464.293 486.554 467.313 485.133 470.113 484.572L496.953 463.356L506.641 476.163L479.153 495.719C478.027 498.343 476.013 501.004 473.268 503.231Z" fill="#A0616A"/>
<path d="M478.338 474.428L518.331 436.48L522.331 433.48C522.331 433.48 545.288 411.113 551.233 410.601C553.751 410.385 556.269 411.012 558.39 412.39C561.817 414.613 563.592 418.27 563.592 421.957C563.592 425.037 562.351 428.132 559.811 430.412L523.197 463.282L507.621 477.263L488.25 494.657L486.281 490.646L479.622 477.054L478.338 474.428Z" fill="#F49D1A"/>
<path d="M563.853 448.746L523.81 461.011C530.514 462.899 533.321 503.75 527.082 505.019C527.082 505.019 593.446 509.74 589.825 505.019C585.411 499.265 591.331 461.028 594.154 461.011L563.853 448.746Z" fill="#A0616A"/>
<path d="M617.136 656.92L613.636 614.68C613.636 599.57 612.656 585.92 611.086 573.75C604.796 524.9 589.026 499.861 589.026 499.861H530.026C529.946 499.951 529.866 500.021 529.786 500.111L529.776 500.121C515.856 514.751 508.616 551.54 505.396 573.751C503.866 584.321 503.246 591.591 503.246 591.591L497.476 642.871L501.646 656.921H535.976L535.436 653.91L557.526 573.75L557.796 572.77L558.036 573.75L578.516 656.921L617.136 656.92Z" fill="#2F2E41"/>
<path d="M531.235 424.379L543.703 399.212L554.208 380.928L562.703 372.271H585.952L588.116 380.928L601.102 388.142L605.695 424.215L589.331 502.48C569.851 486.608 529.703 482.212 529.703 482.212L523.197 463.281L518.898 440.476L518.378 437.749L531.235 424.379Z" fill="#F49D1A"/>
<path d="M529.74 469.905C521.669 469.676 515.245 465.327 515.391 460.192C515.536 455.056 522.197 451.078 530.267 451.307C533.8 451.408 537.017 452.297 539.506 453.697L573.691 455.096L572.692 471.124L539.099 468.044C536.535 469.3 533.272 470.006 529.74 469.905Z" fill="#A0616A"/>
<path d="M573.457 415.198L605.703 447.212L549.535 452.964L536.482 471.324L614.77 473.92C621.834 476.436 629.358 471.554 629.939 464.078C630.135 461.554 614.052 397.506 604.315 391.56C592.903 384.591 573.457 415.198 573.457 415.198Z" fill="#F49D1A"/>
<path d="M595.856 340.858C596.09 326.316 584.492 314.338 569.951 314.104C555.41 313.869 543.431 325.467 543.197 340.008C542.962 354.55 554.56 366.528 569.102 366.763C583.643 366.997 595.621 355.399 595.856 340.858Z" fill="#A0616A"/>
<path d="M627.331 422.48C626.671 424.98 621.531 426.27 620.331 429.48C616.511 431.66 618.581 413.85 617.041 412.68C615.851 411.79 615.531 413.94 615.261 412.09C614.241 405.15 607.571 406.7 602.631 405.58C602.071 404.49 601.641 403.43 601.361 402.4C600.861 400.54 598.581 399.89 597.231 401.26C596.621 400.72 596.181 398.81 595.751 396.9C595.441 395.51 595.131 394.12 594.771 393.24L591.331 385.48L592.441 391.26C590.191 390.45 587.921 391.29 586.611 388.51C584.931 384.94 584.261 380.76 585.481 377.01C586.591 373.61 588.461 366.8 590.571 361.16C588.181 362.89 585.311 364.15 581.981 364.78C583.161 362.54 584.361 360.26 584.861 357.77C585.351 355.28 585.051 352.51 583.471 350.53C582.171 348.9 580.251 349.31 578.631 348C577.371 346.98 576.281 344.37 575.521 342.94C578.761 353.71 581.211 365.15 577.091 375.43C574.241 382.55 568.241 388.34 561.041 390.97C564.871 388.23 568.611 385.31 571.481 381.59C574.551 377.6 576.551 372.56 575.941 367.56C574.981 359.71 560.421 334.88 558.631 330C559.611 334.77 559.231 338.49 556.651 340.54C555.981 333.62 548.441 334.25 544.331 331.48C544.331 331.48 541.151 313.51 548.611 313.4C552.211 313.35 555.981 304.89 559.251 303.38C564.471 300.97 567.671 302.61 573.461 302.79C579.241 302.96 584.791 305.45 588.321 310.02C590.171 312.41 590.851 310.51 593.631 312C596.271 313.41 598.051 312.1 601.041 312.19C607.031 312.35 612.841 315.55 616.201 320.5C619.561 325.46 621.631 325 620.301 332.67C620.281 332.76 620.281 332.94 620.301 333.21C621.031 345.29 619.161 357.4 614.371 368.52C612.891 371.94 620.13 375.47 620.12 379.74C620.11 384.7 612.121 389.22 612.861 391.34C614.981 401.55 626.891 399.28 624.081 416.37C623.851 417.76 627.771 420.81 627.331 422.48Z" fill="#2F2E41"/>
<path d="M554.378 391.211C554.598 391.141 554.818 391.061 555.038 390.971C554.758 391.171 554.488 391.361 554.208 391.561L554.378 391.211Z" fill="#2F2E41"/>
<path d="M591.47 306.96C588.606 307.386 585.696 302.633 587.322 296.043C590.867 301.462 592.678 307.563 592.963 314.265L591.053 314.857L591.47 306.96Z" fill="#F49D1A"/>
<path d="M606.106 300.808C604.151 307.735 594.224 312.371 592.47 309.96L592.27 314.091L591.043 312.512C594.603 307.218 599.456 303.156 606.106 300.808Z" fill="#F49D1A"/>
<path d="M388.121 487.594C388.121 485.292 389.993 483.42 392.295 483.42H459.38C461.681 483.42 463.554 485.292 463.554 487.594C463.554 489.895 461.681 491.768 459.38 491.768H392.295C389.993 491.768 388.121 489.895 388.121 487.594Z" fill="#D7D7D7"/>
<path d="M388.121 515.594C388.121 513.292 389.993 511.42 392.295 511.42H459.38C461.681 511.42 463.554 513.292 463.554 515.594C463.554 517.895 461.681 519.768 459.38 519.768H392.295C389.993 519.768 388.121 517.895 388.121 515.594Z" fill="#D7D7D7"/>
<path d="M339.941 505.895C337.64 505.895 335.768 504.022 335.768 501.721C335.768 499.42 337.64 497.547 339.941 497.547H459.38C461.681 497.547 463.554 499.42 463.554 501.721C463.554 504.022 461.681 505.895 459.38 505.895H339.941Z" fill="#D7D7D7"/>
<path d="M331.062 465.947L322.832 462.048C326.208 466.759 329.116 474.117 330.673 479.971C333.31 474.518 337.56 467.845 341.767 463.859L333.069 466.097C338.429 439.829 358.588 420.971 381.673 420.971V418.971C357.56 418.971 336.534 438.619 331.062 465.947Z" fill="#3F3D56"/>
<path d="M368.941 505.971H316.941C314.736 505.971 312.941 504.177 312.941 501.971C312.941 499.765 314.736 497.971 316.941 497.971H368.941C371.147 497.971 372.941 499.765 372.941 501.971C372.941 504.177 371.147 505.971 368.941 505.971Z" fill="#F49D1A"/>
<path d="M384.129 424.165C385.514 415.63 379.717 407.587 371.181 406.202C362.646 404.817 354.603 410.614 353.218 419.149C351.833 427.685 357.63 435.727 366.165 437.113C374.701 438.498 382.743 432.701 384.129 424.165Z" fill="#3F3D56"/>
<path d="M283.673 308.315C289.007 308.315 293.331 303.991 293.331 298.657C293.331 293.324 289.007 289 283.673 289C278.34 289 274.016 293.324 274.016 298.657C274.016 303.991 278.34 308.315 283.673 308.315Z" fill="#D7D7D7"/>
<path d="M396.673 475.315C402.007 475.315 406.331 470.991 406.331 465.657C406.331 460.324 402.007 456 396.673 456C391.34 456 387.016 460.324 387.016 465.657C387.016 470.991 391.34 475.315 396.673 475.315Z" fill="#D7D7D7"/>
<path d="M437.968 566.858H256.032C254.341 566.858 252.965 565.114 252.965 562.971C252.965 560.827 254.341 559.084 256.032 559.084H437.968C439.659 559.084 441.035 560.827 441.035 562.971C441.035 565.114 439.659 566.858 437.968 566.858Z" fill="#D7D7D7"/>
<path d="M343.536 630.025H299.78C297.11 630.025 294.937 627.848 294.937 625.173V620.789C294.937 618.114 297.11 615.939 299.78 615.939H343.536C346.206 615.939 348.379 618.114 348.379 620.789V625.173C348.379 627.848 346.206 630.025 343.536 630.025Z" fill="#F49D1A"/>
<path d="M408.448 630.348H364.692C361.843 630.348 359.526 628.027 359.526 625.173V620.789C359.526 617.936 361.843 615.615 364.692 615.615H408.448C411.297 615.615 413.614 617.936 413.614 620.789V625.173C413.614 628.027 411.297 630.348 408.448 630.348ZM364.692 616.91C362.557 616.91 360.819 618.65 360.819 620.789V625.173C360.819 627.312 362.557 629.053 364.692 629.053H408.448C410.583 629.053 412.321 627.312 412.321 625.173V620.789C412.321 618.65 410.583 616.91 408.448 616.91H364.692Z" fill="#F49D1A"/>
<path d="M462.12 546.774H231.88C229.741 546.774 228 545.031 228 542.887C228 540.744 229.741 539 231.88 539H462.12C464.259 539 466 540.744 466 542.887C466 545.031 464.259 546.774 462.12 546.774Z" fill="#D7D7D7"/>
<path d="M411.027 586.942H282.973C280.833 586.942 279.092 585.198 279.092 583.055C279.092 580.911 280.833 579.167 282.973 579.167H411.027C413.167 579.167 414.908 580.911 414.908 583.055C414.908 585.198 413.167 586.942 411.027 586.942Z" fill="#D7D7D7"/>
</g>
<path d="M494.92 64.2081H602.315C605.498 64.2081 608.55 65.4724 610.801 67.7228C613.051 69.9732 614.315 73.0255 614.315 76.2081V186.491C614.315 189.674 613.051 192.726 610.801 194.977C608.55 197.227 605.498 198.491 602.315 198.491C586.636 198.491 571.11 195.403 556.625 189.403C542.139 183.403 528.977 174.608 517.89 163.521C506.803 152.434 498.009 139.272 492.008 124.787C486.008 110.301 482.92 94.7752 482.92 79.096V76.2081C482.92 73.0255 484.184 69.9732 486.435 67.7228C488.685 65.4724 491.737 64.2081 494.92 64.2081Z" fill="#EEEEEE"/>
<path d="M607.455 56H490.175C486.043 56.0029 482.08 57.645 479.158 60.5659C476.235 63.4868 474.59 67.4479 474.585 71.58V192.08C474.59 196.213 476.234 200.176 479.157 203.098C482.079 206.021 486.042 207.665 490.175 207.67H607.455C611.588 207.665 615.55 206.021 618.473 203.098C621.395 200.176 623.04 196.213 623.045 192.08V71.58C623.039 67.4479 621.395 63.4867 618.472 60.5658C615.549 57.6449 611.587 56.0029 607.455 56ZM620.645 192.08C620.64 195.577 619.248 198.929 616.776 201.401C614.303 203.874 610.951 205.265 607.455 205.27H490.175C486.678 205.267 483.324 203.876 480.852 201.403C478.379 198.93 476.988 195.577 476.985 192.08V71.58C476.988 68.0828 478.379 64.7298 480.852 62.2569C483.324 59.784 486.678 58.3933 490.175 58.39H607.455C610.951 58.395 614.303 59.7862 616.776 62.2588C619.248 64.7313 620.64 68.0833 620.645 71.58V192.08Z" fill="#CCCCCC"/>
<path d="M534.652 189.66C556.07 218.453 521.866 251.1 485.981 251.1C477.448 251.1 468.999 249.42 461.116 246.155C453.232 242.889 446.07 238.103 440.036 232.07C434.002 226.036 429.216 218.873 425.951 210.99C422.686 203.107 421.005 194.657 421.005 186.125C421.005 150.24 458.965 114.5 488.652 134.66C509.439 148.777 518.908 168.496 534.652 189.66Z" fill="#EEEEEE"/>
<path d="M488.115 113.83C487.225 113.8 486.325 113.78 485.415 113.78C482.597 113.776 479.782 113.94 476.985 114.27C476.175 114.35 475.375 114.46 474.585 114.58C461.551 116.526 449.281 121.944 439.062 130.266C428.843 138.587 421.052 149.506 416.506 161.875C411.961 174.245 410.828 187.61 413.227 200.568C415.626 213.527 421.468 225.601 430.14 235.523C438.813 245.446 449.996 252.852 462.516 256.964C475.037 261.076 488.433 261.743 501.3 258.894C514.167 256.045 526.03 249.786 535.645 240.773C545.259 231.76 552.271 220.326 555.945 207.67C556.175 206.87 556.395 206.07 556.595 205.27C557.847 200.344 558.578 195.299 558.775 190.22C558.825 189.22 558.845 188.22 558.845 187.21C558.822 168.209 551.444 149.956 538.258 136.275C525.072 122.595 507.102 114.551 488.115 113.83ZM554.115 205.27C553.905 206.08 553.675 206.88 553.435 207.67C549.774 219.835 542.917 230.796 533.579 239.41C524.242 248.024 512.764 253.976 500.344 256.646C487.924 259.316 475.014 258.606 462.962 254.59C450.909 250.574 440.154 243.399 431.817 233.812C423.481 224.226 417.868 212.58 415.563 200.086C413.259 187.593 414.347 174.71 418.715 162.78C423.082 150.85 430.57 140.31 440.396 132.258C450.223 124.206 462.029 118.937 474.585 117C475.385 116.88 476.185 116.77 476.985 116.68C479.782 116.346 482.597 116.179 485.415 116.18C486.585 116.18 487.745 116.21 488.895 116.26C507.101 117.177 524.261 125.049 536.831 138.252C549.402 151.455 556.422 168.98 556.445 187.21C556.445 187.9 556.435 188.58 556.415 189.26C556.261 194.667 555.489 200.039 554.115 205.27Z" fill="#CCCCCC"/>
<path d="M584.652 774.386C584.652 794.247 600.926 810.348 621 810.348C641.074 810.348 657.348 794.247 657.348 774.386C657.348 754.525 629.342 727.135 621 745.2C609.87 769.304 584.652 754.525 584.652 774.386Z" fill="#F49D1A"/>
<path d="M95 52.1477V74.8523C95 78.7936 91.7936 82 87.8523 82H65.1477C61.2064 82 58 78.7936 58 74.8523V52.1477C58 48.2064 61.2064 45 65.1477 45H87.8523C91.7936 45 95 48.2064 95 52.1477ZM87.8523 81.1591C91.3354 81.1591 94.1591 78.3354 94.1591 74.8523V64.278C94.1591 54.0955 85.9045 45.8409 75.722 45.8409H65.1477C61.6646 45.8409 58.8409 48.6646 58.8409 52.1477V74.8523C58.8409 78.3354 61.6646 81.1591 65.1477 81.1591H87.8523Z" fill="#3F3D56"/>
<path d="M94.1956 63.3122C94.1956 53.6429 86.273 45.8044 76.5 45.8044C66.7269 45.8044 58.8043 53.6429 58.8043 63.3122C58.8043 72.9814 72.4389 86.3158 76.5 77.5209C81.9184 65.7864 94.1956 72.9814 94.1956 63.3122Z" fill="#F49D1A"/>
<rect x="77" y="769" width="222" height="11" rx="5.5" fill="#D7D7D7"/>
<defs>
<clipPath id="clip0_3_220">
<rect width="552.941" height="367.921" fill="white" transform="translate(77 289)"/>
</clipPath>
</defs>
</svg>
